<svg xmlns="http://www.w3.org/2000/svg" xmlns:xlink="http://www.w3.org/1999/xlink" viewBox="0 0 30 30">
  <defs>
    <linearGradient id="Neues_Verlaufsfeld_1" data-name="Neues Verlaufsfeld 1" x1="8.76" y1="6.42" x2="21.25" y2="6.42" gradientTransform="translate(30.01 12.85) rotate(-180)" gradientUnits="userSpaceOnUse">
      <stop offset="0.41" stop-color="#fff" stop-opacity="0"></stop>
      <stop offset="0.51" stop-color="#fff" stop-opacity="0.15"></stop>
      <stop offset="0.74" stop-color="#fff" stop-opacity="0.53"></stop>
      <stop offset="1" stop-color="#fff"></stop>
    </linearGradient>
    <linearGradient id="Unbenannter_Verlauf_8" data-name="Unbenannter Verlauf 8" x1="21.17" y1="3.9" x2="21.17" y2="4.06" gradientUnits="userSpaceOnUse">
      <stop offset="0.28" stop-color="#fff" stop-opacity="0"></stop>
      <stop offset="0.39" stop-color="#fff" stop-opacity="0.01"></stop>
      <stop offset="0.48" stop-color="#fff" stop-opacity="0.06"></stop>
      <stop offset="0.57" stop-color="#fff" stop-opacity="0.13"></stop>
      <stop offset="0.65" stop-color="#fff" stop-opacity="0.22"></stop>
      <stop offset="0.73" stop-color="#fff" stop-opacity="0.35"></stop>
      <stop offset="0.81" stop-color="#fff" stop-opacity="0.51"></stop>
      <stop offset="0.89" stop-color="#fff" stop-opacity="0.69"></stop>
      <stop offset="0.97" stop-color="#fff" stop-opacity="0.9"></stop>
      <stop offset="1" stop-color="#fff"></stop>
    </linearGradient>
    <linearGradient id="Unbenannter_Verlauf_5" data-name="Unbenannter Verlauf 5" x1="12.3" y1="8.53" x2="12.3" y2="4.06" gradientUnits="userSpaceOnUse">
      <stop offset="0.1" stop-color="#2dc4ed" stop-opacity="0"></stop>
      <stop offset="0.23" stop-color="#2dc4ed" stop-opacity="0.01"></stop>
      <stop offset="0.34" stop-color="#2dc4ed" stop-opacity="0.06"></stop>
      <stop offset="0.45" stop-color="#2dc4ed" stop-opacity="0.13"></stop>
      <stop offset="0.55" stop-color="#2dc4ed" stop-opacity="0.24"></stop>
      <stop offset="0.6" stop-color="#2dc4ed" stop-opacity="0.3"></stop>
      <stop offset="0.8" stop-color="#2dc4ed" stop-opacity="0.3"></stop>
      <stop offset="1" stop-color="#2dc4ed" stop-opacity="0.1"></stop>
    </linearGradient>
    <linearGradient id="Unbenannter_Verlauf_5-2" x1="-15290.78" y1="8.53" x2="-15290.78" y2="4.06" gradientTransform="matrix(-1, 0, 0, 1, -15273.07, 0)" xlink:href="#Unbenannter_Verlauf_5"></linearGradient>
    <linearGradient id="Neues_Verlaufsfeld_1-2" x1="7.9" y1="10.24" x2="22.11" y2="10.24" gradientTransform="matrix(1, 0, 0, 1, 0, 0)" xlink:href="#Neues_Verlaufsfeld_1"></linearGradient>
    <linearGradient id="Unbenannter_Verlauf_5-3" x1="5.72" y1="11.39" x2="24.28" y2="11.39" xlink:href="#Unbenannter_Verlauf_5"></linearGradient>
    <linearGradient id="Unbenannter_Verlauf_70" data-name="Unbenannter Verlauf 70" x1="15" y1="29.06" x2="15" y2="20.35" gradientUnits="userSpaceOnUse">
      <stop offset="0.41" stop-color="#fff" stop-opacity="0"></stop>
      <stop offset="0.51" stop-color="#fff" stop-opacity="0.15"></stop>
      <stop offset="0.74" stop-color="#fff" stop-opacity="0.53"></stop>
      <stop offset="1" stop-color="#fff"></stop>
    </linearGradient>
    <linearGradient id="Neues_Verlaufsfeld_1-3" x1="10.55" y1="21.89" x2="18.22" y2="8.59" gradientTransform="matrix(1, 0, 0, 1, 0, 0)" xlink:href="#Neues_Verlaufsfeld_1"></linearGradient>
    <linearGradient id="Unbenannter_Verlauf_5-4" x1="5.34" y1="2.46" x2="24.67" y2="2.46" gradientTransform="translate(0 0)" xlink:href="#Unbenannter_Verlauf_5"></linearGradient>
  </defs>
  <g style="isolation: isolate">
    <g id="Layer_1" data-name="Layer 1">
      <g>
        <rect x="0.19" y="0.05" width="29.62" height="29.89" fill="none"></rect>
        <g>
          <rect x="8.76" y="3.9" width="12.49" height="5.04" transform="translate(30.01 12.85) rotate(180)" fill="#2dc4ed"></rect>
          <rect x="8.76" y="3.9" width="12.49" height="5.04" transform="translate(30.01 12.85) rotate(180)" opacity="0.6" fill="url(#Neues_Verlaufsfeld_1)"></rect>
          <polygon points="19.02 8.95 21.25 8.95 21.25 6.7 19.02 8.95" fill="#fff" opacity="0.2"></polygon>
          <polygon points="21.25 4.06 21.25 3.9 21.09 3.9 21.25 4.06" fill="url(#Unbenannter_Verlauf_8)"></polygon>
          <polygon points="9.22 8.94 15.67 8.94 20.66 3.9 14.21 3.9 9.22 8.94" fill="#fff" opacity="0.35"></polygon>
          <polygon points="12 3.9 8.76 3.9 8.76 7.17 12 3.9" fill="#fff" opacity="0.2" style="mix-blend-mode: overlay"></polygon>
          <rect x="8.76" y="8.52" width="12.49" height="0.46" transform="translate(30.01 17.5) rotate(180)" fill="#0d2e4f"></rect>
          <rect x="8.76" y="3.9" width="12.49" height="0.54" fill="#004a72" opacity="0.33" style="mix-blend-mode: multiply"></rect>
          <rect x="17.41" y="4.06" width="0.49" height="4.47" fill="#0d2e4f"></rect>
          <rect x="12.11" y="4.06" width="0.49" height="4.47" fill="#0d2e4f"></rect>
          <rect x="12.11" y="4.06" width="0.37" height="4.47" fill="url(#Unbenannter_Verlauf_5)"></rect>
          <rect x="17.52" y="4.06" width="0.37" height="4.47" fill="url(#Unbenannter_Verlauf_5-2)"></rect>
          <rect x="12.6" y="4.06" width="0.11" height="4.47" fill="#004a72" opacity="0.3"></rect>
          <rect x="17.3" y="4.06" width="0.11" height="4.47" fill="#004a72" opacity="0.3"></rect>
          <path d="M8.34,9l-.44,2.5H22.11L21.67,9a.12.12,0,0,0-.12-.1H8.45A.12.12,0,0,0,8.34,9Z" fill="#ffc709"></path>
          <path d="M8.34,9l-.44,2.5H22.11L21.67,9a.12.12,0,0,0-.12-.1H8.45A.12.12,0,0,0,8.34,9Z" opacity="0.45" fill="url(#Neues_Verlaufsfeld_1-2)" style="mix-blend-mode: overlay"></path>
          <path d="M8.45,8.94a.12.12,0,0,0-.11.1v0H21.67V9a.12.12,0,0,0-.12-.1Z" fill="#fff" opacity="0.38" style="mix-blend-mode: overlay"></path>
          <polygon points="7.92 11.4 22.09 11.4 21.79 9.74 8.22 9.74 7.92 11.4" fill="#814c1f" opacity="0.3" style="mix-blend-mode: multiply"></polygon>
          <path d="M6.17,10.19l-.45,2.5H24.28l-.44-2.5a.12.12,0,0,0-.11-.1H6.28A.12.12,0,0,0,6.17,10.19Z" fill="#0d2e4f"></path>
          <path d="M6.17,10.19l-.45,2.5H24.28l-.44-2.5a.12.12,0,0,0-.11-.1H6.28A.12.12,0,0,0,6.17,10.19Z" fill="url(#Unbenannter_Verlauf_5-3)"></path>
          <polygon points="5.87 12.05 5.72 12.69 24.29 12.69 24.14 12.05 5.87 12.05" fill="#0d2e4f" opacity="0.35" style="mix-blend-mode: multiply"></polygon>
          <path d="M9.87,27H20a.12.12,0,0,1,.12.12v2.72a.12.12,0,0,1-.12.12H9.87a.11.11,0,0,1-.11-.11V27.1A.12.12,0,0,1,9.87,27Z" fill="#2dc4ed"></path>
          <polyline points="9.76 29.23 9.76 26.43 20.15 26.43 20.15 29.23" fill="#2dc4ed" style="mix-blend-mode: multiply"></polyline>
          <path d="M9,20.35v8.59a.12.12,0,0,0,.12.12h11.7a.12.12,0,0,0,.12-.12V20.35Z" fill="#004a72"></path>
          <path d="M9,20.35v8.59a.12.12,0,0,0,.12.12h11.7a.12.12,0,0,0,.12-.12V20.35Z" opacity="0.42" fill="url(#Unbenannter_Verlauf_70)" style="mix-blend-mode: overlay"></path>
          <path d="M9,28.94a.12.12,0,0,0,.12.12h11.7a.12.12,0,0,0,.12-.12v0H9Z" fill="#0d2e4f"></path>
          <rect x="9.03" y="20.34" width="11.94" height="0.72" transform="translate(30 41.39) rotate(180)" fill="#0d2e4f"></rect>
          <path d="M9,20.35h2.86a.17.17,0,0,1,.17.17v8.54a0,0,0,0,1,0,0H9a0,0,0,0,1,0,0V20.35A0,0,0,0,1,9,20.35Z" transform="translate(21.09 49.41) rotate(180)" fill="#0d2e4f" opacity="0.4" style="mix-blend-mode: multiply"></path>
          <path d="M18.07,20.35H21a0,0,0,0,1,0,0v8.71a0,0,0,0,1,0,0h-3a0,0,0,0,1,0,0V20.49a.14.14,0,0,1,.14-.14Z" transform="translate(38.91 49.41) rotate(180)" fill="#fff" opacity="0.4" style="mix-blend-mode: overlay"></path>
          <path d="M25.2,12.63H4.8a.12.12,0,0,0-.11.09l-.5,2,3.57,5.49a.22.22,0,0,0,.18.1H22.06a.22.22,0,0,0,.18-.1l3.57-5.49-.5-2A.12.12,0,0,0,25.2,12.63Z" fill="#ffc709"></path>
          <path d="M25.2,12.63H4.8a.12.12,0,0,0-.11.09l-.5,2,3.57,5.47a.24.24,0,0,0,.2.12H22a.24.24,0,0,0,.2-.12l3.57-5.47-.5-2A.12.12,0,0,0,25.2,12.63Z" fill="#ffc709"></path>
          <path d="M25.2,12.63H4.8a.12.12,0,0,0-.11.09l-.5,2,3.57,5.47a.24.24,0,0,0,.2.12H22a.24.24,0,0,0,.2-.12l3.57-5.47-.5-2A.12.12,0,0,0,25.2,12.63Z" opacity="0.63" fill="url(#Neues_Verlaufsfeld_1-3)" style="mix-blend-mode: overlay"></path>
          <path d="M11.92,20.24,8.35,14.77l.5-2A.13.13,0,0,1,9,12.63H4.8a.12.12,0,0,0-.11.09l-.5,2,3.57,5.47a.24.24,0,0,0,.2.12h4.17A.26.26,0,0,1,11.92,20.24Z" fill="#b27e4f" opacity="0.3" style="mix-blend-mode: multiply"></path>
          <path d="M18.08,20.24l3.57-5.47-.5-2a.13.13,0,0,0-.12-.09H25.2a.12.12,0,0,1,.11.09l.5,2-3.57,5.47a.24.24,0,0,1-.2.12H17.87A.26.26,0,0,0,18.08,20.24Z" fill="#fff" opacity="0.4" style="mix-blend-mode: overlay"></path>
          <path d="M6.28,10.09a.12.12,0,0,0-.11.1v0H23.84v0a.12.12,0,0,0-.11-.1Z" fill="#0d2e4f" style="mix-blend-mode: multiply"></path>
          <g>
            <path d="M6.56,1H23.45L23.22.17a.14.14,0,0,0-.13-.1H6.88a.12.12,0,0,0-.12.1Z" fill="#ffc709"></path>
            <polygon points="6.56 1.04 23.45 1.04 23.38 0.79 6.62 0.79 6.56 1.04" fill="#b47d4f" opacity="0.3" style="mix-blend-mode: multiply"></polygon>
          </g>
          <path d="M5.87,4.08H24.13A.09.09,0,0,0,24.22,4l.45-3H5.34l.45,3A.08.08,0,0,0,5.87,4.08Z" fill="#0d2e4f"></path>
          <path d="M5.87,3.88H24.13a.09.09,0,0,0,.09-.07L24.67,1H5.34l.45,2.77A.08.08,0,0,0,5.87,3.88Z" fill="url(#Unbenannter_Verlauf_5-4)"></path>
          <polygon points="24.67 1.04 5.34 1.04 5.36 1.16 24.65 1.16 24.67 1.04" fill="#fff" style="mix-blend-mode: overlay"></polygon>
          <polygon points="4.19 14.77 25.81 14.77 25.76 14.56 4.24 14.56 4.19 14.77" fill="#fff" opacity="0.4" style="mix-blend-mode: overlay"></polygon>
          <path d="M25.81,14.77H4.19l3.57,5.47a.24.24,0,0,0,.2.12H22a.24.24,0,0,0,.2-.12l3.57-5.47Z" fill="#b27e4f" opacity="0.6" style="mix-blend-mode: multiply"></path>
        </g>
      </g>
    </g>
  </g>
</svg>