<svg viewBox="0 0 124 26" xmlns="http://www.w3.org/2000/svg">
  <path d="M118.65 9.425c0 2.13-1.459 3.575-4.003 3.575h-5.29V5.742h5.189c2.544 0 4.104 1.227 4.104 3.61v.073zm5.221 15.358l-5.018-7.81c3.019-1.193 5.088-3.756 5.088-7.837v-.072c0-5.2-3.358-8.342-8.955-8.342h-10.123c-.403 0-.73.349-.73.778v23.722c0 .43.327.778.73.778h3.762c.404 0 .731-.348.731-.778v-7.31h4.104l4.87 7.743a.72.72 0 0 0 .608.345h4.33c.588 0 .935-.7.603-1.217zM80.105.794h-3.921a.74.74 0 0 0-.702.545L70.698 17.74 65.512 1.25a.739.739 0 0 0-.697-.529h-3.438a.738.738 0 0 0-.697.53L55.494 17.74 50.71 1.339a.74.74 0 0 0-.702-.545H45.95c-.503 0-.857.518-.695 1.017l7.65 23.666c.1.313.38.523.695.523h3.518a.738.738 0 0 0 .694-.519l5.216-15.856 5.215 15.856c.102.31.38.519.694.519h3.519c.314 0 .594-.21.695-.523l7.65-23.666c.16-.5-.193-1.017-.696-1.017m19.882 20.259h-11.98v-5.309h10.31c.397 0 .72-.348.72-.777v-3.392c0-.43-.323-.778-.72-.778h-10.31V5.67H99.82c.398 0 .72-.348.72-.778v-3.39c0-.43-.322-.779-.72-.779H83.615c-.397 0-.72.348-.72.778v23.722c0 .43.323.778.72.778h16.372c.398 0 .72-.348.72-.778v-3.391c0-.43-.322-.778-.72-.778M39.73 13.072c0 4.31-2.93 7.828-7.154 7.828-4.225 0-7.223-3.59-7.223-7.9v-.072c0-4.31 2.93-7.828 7.155-7.828 4.224 0 7.222 3.59 7.222 7.9v.072zM32.576 0c-7.36 0-12.709 5.854-12.709 13v.072c0 7.146 5.281 12.928 12.64 12.928 7.36 0 12.708-5.854 12.708-13v-.072C45.215 5.782 39.935 0 32.575 0zM19.13.722H.738C.33.722 0 1.07 0 1.5v3.572c0 .383.264.7.61.764h6.686v19.386c0 .43.33.778.738.778h3.8c.407 0 .737-.348.737-.778V5.836h6.689a.766.766 0 0 0 .607-.764V1.5c0-.43-.33-.778-.737-.778" fill="#002D4F" fill-rule="evenodd"/>
</svg>